<?xml version="1.0" standalone="no"?>
<!DOCTYPE svg PUBLIC "-//W3C//DTD SVG 20010904//EN"
 "http://www.w3.org/TR/2001/REC-SVG-20010904/DTD/svg10.dtd">
<svg version="1.0" xmlns="http://www.w3.org/2000/svg"
 width="1024.000000pt" height="1024.000000pt" viewBox="0 0 1024.000000 1024.000000"
 preserveAspectRatio="xMidYMid meet">
<metadata>
Created by potrace 1.11, written by Peter Selinger 2001-2013
</metadata>
<g transform="translate(0.000000,1024.000000) scale(0.100000,-0.100000)"
fill="#000000" stroke="none">
<path d="M1455 10229 c-53 -10 -108 -20 -120 -23 -5 -1 -15 -5 -21 -8 -6 -4
-23 -9 -39 -12 -41 -8 -165 -68 -235 -116 -90 -61 -173 -143 -227 -223 -26
-40 -50 -74 -53 -77 -10 -9 -45 -94 -43 -102 2 -5 -1 -8 -6 -8 -5 0 -11 -10
-14 -22 -3 -13 -11 -43 -17 -68 -13 -47 -14 -52 -29 -135 -6 -31 -10 -1707
-10 -4315 0 -4435 -2 -4262 34 -4420 2 -8 11 -35 20 -60 9 -25 17 -49 18 -55
2 -5 9 -21 17 -35 8 -14 13 -28 12 -33 -1 -4 2 -7 7 -7 5 0 12 -11 15 -25 4
-14 11 -25 16 -25 6 0 10 -7 10 -15 0 -8 5 -15 10 -15 6 0 10 -5 10 -11 0 -32
134 -170 238 -243 90 -64 249 -136 333 -151 112 -21 145 -23 249 -20 104 4
165 9 165 14 0 2 11 5 25 8 38 7 55 11 58 13 1 2 5 3 10 4 56 13 176 75 360
185 85 50 157 91 162 91 5 0 10 3 12 8 4 9 57 41 81 49 9 3 17 9 17 14 0 5 6
9 13 9 7 0 23 8 37 18 13 9 48 31 76 47 29 17 98 57 154 90 55 33 113 66 128
74 15 8 29 17 32 20 3 3 25 17 50 30 25 14 47 27 50 30 5 6 57 36 97 55 13 6
23 14 23 19 0 4 5 7 10 7 6 0 39 18 74 40 35 22 66 40 70 40 4 0 26 12 49 27
59 39 176 109 255 153 15 8 62 37 105 63 43 26 80 47 82 47 3 0 36 20 75 45
39 25 72 45 74 45 3 0 191 112 271 161 17 10 37 22 45 26 16 7 366 214 410
242 14 8 45 26 70 40 25 13 47 27 50 31 3 4 26 17 53 30 26 13 47 27 47 32 0
4 9 8 20 8 11 0 20 4 20 9 0 5 10 13 23 17 12 4 24 10 27 13 8 10 130 81 140
81 5 0 10 3 12 8 4 8 50 36 91 54 15 7 27 16 27 20 0 4 6 8 14 8 8 0 21 6 28
13 7 7 33 24 58 38 87 49 119 68 159 93 22 15 45 26 51 26 5 0 10 4 10 8 0 5
16 14 35 22 19 8 35 16 35 20 0 3 17 14 37 25 21 11 66 37 100 58 35 20 67 37
72 37 5 0 11 4 13 8 2 5 30 23 63 42 33 18 67 39 77 47 9 8 23 16 32 17 8 1
23 9 33 18 10 8 38 27 63 40 25 14 103 59 173 101 71 43 133 77 138 77 5 0 9
4 9 8 0 5 16 14 35 22 19 8 35 17 35 22 0 4 7 8 15 8 8 0 15 4 15 8 0 4 12 13
28 19 36 15 86 46 90 56 2 4 8 7 12 7 5 0 78 41 162 91 84 50 167 99 183 109
196 114 282 166 293 177 7 7 17 13 21 13 5 0 42 20 82 44 41 24 175 103 299
176 124 73 296 175 382 227 87 51 162 93 168 93 5 0 10 5 10 10 0 6 4 10 10
10 5 0 34 16 64 35 30 19 60 35 66 35 5 0 10 4 10 9 0 5 15 14 33 22 17 7 34
16 37 19 3 3 82 50 175 105 94 55 172 103 173 107 2 5 8 6 13 2 5 -3 9 0 9 6
0 6 4 9 9 6 5 -4 11 -2 13 2 1 5 30 23 63 42 33 18 63 38 66 43 3 5 8 7 10 6
2 -2 15 4 29 13 14 9 50 32 82 51 111 70 238 206 305 327 35 62 79 172 87 212
2 15 7 31 9 35 13 21 21 121 21 238 -1 101 -6 150 -24 219 -12 50 -26 97 -30
105 -69 142 -90 182 -120 220 -19 25 -38 48 -42 49 -4 2 -8 8 -8 13 0 9 -55
63 -130 128 -30 26 -294 188 -425 261 -22 12 -52 31 -67 41 -14 11 -31 19 -37
19 -6 0 -11 5 -11 10 0 6 -4 10 -8 10 -8 0 -221 122 -282 162 -14 9 -44 26
-67 39 -23 13 -84 49 -135 79 -51 30 -101 59 -110 65 -9 5 -60 36 -114 68 -53
31 -100 57 -105 57 -5 0 -9 4 -9 8 0 4 -12 13 -27 20 -16 6 -41 21 -58 32 -16
11 -37 23 -45 27 -26 13 -162 94 -227 134 -34 22 -67 39 -72 39 -5 0 -11 4
-13 8 -3 7 -22 19 -148 89 -25 14 -52 32 -61 39 -8 8 -19 14 -23 14 -4 0 -28
14 -54 32 -26 18 -47 31 -47 28 0 -2 -18 8 -40 22 -22 13 -56 33 -75 44 -19
10 -37 22 -40 25 -3 3 -27 18 -55 33 -115 65 -142 80 -180 105 -22 14 -53 33
-70 41 -16 8 -49 27 -72 43 -24 15 -47 27 -53 27 -5 0 -10 5 -10 10 0 6 -4 10
-9 10 -4 0 -41 19 -80 43 -39 23 -79 47 -89 52 -9 6 -51 30 -92 54 -116 68
-194 115 -215 129 -11 6 -27 15 -35 19 -8 3 -34 19 -57 35 -23 15 -44 28 -46
28 -3 0 -35 18 -72 41 -123 74 -150 90 -167 96 -10 3 -18 9 -18 14 0 5 -6 9
-14 9 -7 0 -19 7 -26 15 -7 8 -16 12 -21 9 -5 -3 -9 -1 -9 5 0 5 -9 12 -19 16
-11 3 -34 16 -53 28 -18 13 -53 34 -78 47 -25 14 -47 27 -50 30 -5 5 -13 10
-89 52 -20 11 -48 29 -63 39 -14 11 -29 19 -32 19 -4 0 -43 23 -87 50 -44 28
-83 50 -85 50 -2 0 -23 12 -47 27 -23 15 -54 34 -69 43 -15 8 -62 35 -104 60
-42 25 -100 59 -130 75 -30 17 -59 36 -66 43 -7 7 -15 12 -19 12 -3 0 -64 35
-135 78 -71 42 -143 84 -159 92 -17 8 -32 18 -35 21 -10 11 -249 149 -259 149
-5 0 -11 4 -13 8 -1 5 -30 23 -63 42 -33 18 -62 36 -65 39 -5 6 -80 48 -117
65 -13 6 -23 14 -23 19 0 4 -7 7 -15 7 -8 0 -15 5 -15 10 0 6 -4 10 -10 10 -5
0 -54 27 -109 60 -55 33 -104 60 -109 60 -5 0 -17 9 -27 20 -10 11 -21 17 -26
15 -4 -3 -13 1 -21 8 -7 8 -34 25 -60 40 -25 14 -64 37 -87 51 -22 14 -45 26
-50 26 -5 0 -11 4 -13 8 -3 7 -55 39 -188 114 -19 11 -46 28 -60 38 -14 9 -40
23 -57 31 -18 8 -33 17 -33 21 0 5 -4 8 -9 8 -12 0 -115 63 -119 73 -2 4 -9 7
-15 7 -7 0 -40 18 -75 40 -34 22 -67 40 -71 40 -5 0 -14 7 -21 15 -7 8 -16 12
-21 9 -5 -3 -9 -1 -9 4 0 5 -15 17 -32 26 -18 9 -51 27 -73 41 -22 14 -49 30
-60 35 -11 6 -29 16 -40 23 -224 135 -354 196 -449 211 -21 3 -43 9 -48 13
-16 9 -267 11 -313 2z"/>
</g>
</svg>
